<?xml version="1.0" encoding="UTF-8"?>
<svg id="_图层_1" data-name="图层_1" xmlns="http://www.w3.org/2000/svg" version="1.1" viewBox="0 0 1274.88 400.32">
  <!-- Generator: Adobe Illustrator 29.1.0, SVG Export Plug-In . SVG Version: 2.1.0 Build 142)  -->
  <defs>
    <style>
      .st0 {
        fill: #5e727d;
      }

      .st1 {
        fill: #c9d0d3;
      }

      .st2 {
        fill: #fefefe;
      }
    </style>
  </defs>
  <path class="st0" d="M1274.88.48v399.84H0V.48h1274.88ZM315.34,96.84v48.44h48.98v-48.44h-48.98ZM427.2,96.84h-48.96l.02,99.5c1.07,29.54-18.19,52.95-48.24,54.89-21.69,1.4-44.91-1.08-66.77-.05-.49-.1-1.66.35-1.66.74v47.46c0,.4,1.16.85,1.66.74,41.22-2,87.39,7.69,123.3-17.37,25.71-17.95,38.87-46.8,40.19-77.8,1.48-34.91-.92-70.93-.05-106,.02-.82.16-1.41.51-2.13ZM1065.47,134.02c0-8.67-7.04-15.7-15.72-15.7s-15.72,7.03-15.72,15.7,7.04,15.7,15.72,15.7,15.72-7.03,15.72-15.7ZM576.96,124.17h-32.64v99.48c0,1.15-1.2,4.7-1.69,5.98-6.73,17.67-30,16.59-40.54,3.11-.73-.94-2.93-5.67-3.84-5.02-.03.75-.43,1.2-.98,1.65-3.95,3.2-9.28,6.52-13.56,9.48-3.36,2.33-6.82,4.69-10.43,6.62,15.42,30.1,60.9,36.56,86.62,16.27,12.17-9.6,16.37-23.49,17.08-38.55l-.02-99.02ZM695.04,124.17c-.09,1.07-.73,1.91-1.33,2.75-10.47,14.5-20.55,29.28-31.07,43.75-11.13-15.43-21.36-31.56-33.12-46.49h-38.16l51.36,71.19-53.76,75.51h38.16c1.57-1.35,2.75-3.01,3.99-4.64,9.77-12.81,18.88-27.08,28.32-40.27,1.08-1.51,2.32-3.21,2.98-4.94l35.27,49.86h38.64l-53.68-75.12,51.76-71.59h-39.36ZM752.64,124.17v147.18c.35.13.57-.48.72-.48h31.92v-46.5h27.36c.03.58.24,1.1.55,1.59,9.67,15.23,21.31,29.26,31.24,44.33,12.79,1.32,25.88.25,38.77.59l-37.91-52.5c33.18-9.66,42.11-55.2,18.96-79.35-10.14-10.58-26.26-13.69-40.31-14.88l-71.3.02ZM1014.72,124.65l-113.28-.48v146.7h113.28l.48-28.77h-81.12v-31.16h71.04v-26.61c0-.15.61-.37.48-.72h-71.52v-30.68h80.64v-28.29ZM364.32,159.17h-48.24c-1.43,0-.25,4.93-.22,5.97.82,28.01.67,52.94-27.23,67.3-3.24,1.67-7.55,2.39-10.23,4.88,11.2-.8,22.59-.52,33.86-.5,6.35.01,12.68.67,19.12-.04,20.07-2.21,31.71-15.79,32.94-35.66.85-13.68-.62-28.18,0-41.95Z"/>
  <rect class="st1" y="0" width="1274.88" height=".48"/>
  <path class="st2" d="M427.2,96.84c-.35.72-.49,1.31-.51,2.13-.88,35.07,1.53,71.09.05,106-1.32,30.99-14.48,59.85-40.19,77.8-35.9,25.06-82.07,15.37-123.3,17.37-.49.1-1.66-.35-1.66-.74v-47.46c0-.4,1.16-.85,1.66-.74,21.85-1.03,45.08,1.45,66.77.05,30.05-1.95,49.31-25.36,48.24-54.89l-.02-99.5h48.96Z"/>
  <path class="st2" d="M752.64,124.17l71.3-.02c14.05,1.19,30.16,4.29,40.31,14.88,23.15,24.15,14.22,69.69-18.96,79.35l37.91,52.5c-12.89-.34-25.97.73-38.77-.59-9.93-15.06-21.57-29.09-31.24-44.33-.31-.49-.52-1.01-.55-1.59h-27.36v46.5h-31.92c-.15,0-.37.61-.72.48V124.17ZM785.28,197.04c.35.13.57-.48.72-.48h36.96c2.48,0,8.64-2.21,10.98-3.42,13.64-6.99,14.19-29.74.62-36.94-8.22-4.36-30.5-2.94-40.86-3.29-2.88-.1-5.78.11-8.66.02-.67.08.24.61.24.72v43.39Z"/>
  <path class="st2" d="M1014.72,124.65v28.29h-80.64v30.68h71.52c.13.35-.48.57-.48.72v26.61h-71.04v31.16h81.12l-.48,28.77h-113.28V124.17l113.28.48Z"/>
  <path class="st2" d="M695.04,124.17h39.36l-51.76,71.59,53.68,75.12h-38.64l-35.27-49.86c-.66,1.73-1.9,3.44-2.98,4.94-9.44,13.2-18.55,27.47-28.32,40.27-1.24,1.63-2.42,3.29-3.99,4.64h-38.16l53.76-75.51-51.36-71.19h38.16c11.76,14.94,21.99,31.07,33.12,46.49,10.52-14.47,20.59-29.25,31.07-43.75.6-.83,1.25-1.67,1.33-2.75Z"/>
  <path class="st2" d="M576.96,124.17l.02,99.02c-.71,15.06-4.91,28.95-17.08,38.55-25.72,20.29-71.2,13.83-86.62-16.27,3.61-1.92,7.07-4.29,10.43-6.62,4.28-2.96,9.61-6.28,13.56-9.48.55-.45.95-.9.98-1.65.91-.65,3.11,4.08,3.84,5.02,10.54,13.48,33.81,14.55,40.54-3.11.49-1.28,1.69-4.84,1.69-5.98v-99.48h32.64Z"/>
  <path class="st2" d="M364.32,159.17c-.63,13.76.84,28.26,0,41.95-1.23,19.87-12.87,33.45-32.94,35.66-6.43.71-12.76.05-19.12.04-11.27-.02-22.67-.31-33.86.5,2.69-2.49,6.99-3.21,10.23-4.88,27.9-14.36,28.05-39.29,27.23-67.3-.03-1.04-1.22-5.97.22-5.97h48.24Z"/>
  <rect class="st2" x="315.34" y="96.84" width="48.98" height="48.44"/>
  <path class="st2" d="M1065.47,134.02c0,8.67-7.04,15.7-15.72,15.7s-15.72-7.03-15.72-15.7,7.04-15.7,15.72-15.7,15.72,7.03,15.72,15.7ZM1063.04,134.01c0-7.32-5.94-13.26-13.28-13.26s-13.28,5.94-13.28,13.26,5.94,13.26,13.28,13.26,13.28-5.94,13.28-13.26Z"/>
  <path class="st0" d="M785.28,197.04v-43.39c0-.11-.91-.64-.24-.72,2.88.1,5.78-.11,8.66-.02,10.36.35,32.64-1.07,40.86,3.29,13.56,7.2,13.02,29.95-.62,36.94-2.34,1.2-8.51,3.42-10.98,3.42h-36.96c-.15,0-.37.61-.72.48Z"/>
  <path class="st0" d="M1063.04,134.01c0,7.32-5.94,13.26-13.28,13.26s-13.28-5.94-13.28-13.26,5.94-13.26,13.28-13.26,13.28,5.94,13.28,13.26ZM1053.84,125.13c-2.96-.59-7.62.43-10.8,0v17.74h2.4v-7.67c3.7-.23,4.61-.36,6.92,2.44,1.93,2.34,2.49,6.21,6.04,5.23.37-.32-4.11-7.92-5.75-7.67l3.33-1.7c2.7-2.47,1.35-7.67-2.13-8.36Z"/>
  <path class="st2" d="M1053.84,125.13c3.48.69,4.84,5.89,2.13,8.36l-3.33,1.7c1.64-.24,6.13,7.36,5.75,7.67-3.55.98-4.11-2.9-6.04-5.23-2.31-2.8-3.22-2.66-6.92-2.44v7.67h-2.4v-17.74c3.18.43,7.84-.59,10.8,0ZM1052.4,127.05c-1.89-.4-4.91.29-6.96,0v5.75h7.44c2.07,0,3.02-5.01-.48-5.75Z"/>
  <path class="st0" d="M1052.4,127.05c3.5.75,2.55,5.75.48,5.75h-7.44v-5.75c2.05.29,5.07-.4,6.96,0Z"/>
</svg>